<?xml version="1.0" standalone="no"?><!DOCTYPE svg PUBLIC "-//W3C//DTD SVG 1.1//EN" "http://www.w3.org/Graphics/SVG/1.1/DTD/svg11.dtd"><svg class="icon" viewBox="0 0 1024 1024" version="1.1" xmlns="http://www.w3.org/2000/svg"><path d="M913.066667 174.933333l-66.133334-66.133333c-55.466667-55.466667-142.933333-61.866667-204.8-14.933333l-202.666666 151.466666c-21.333333 14.933333-34.133333 38.4-36.266667 64-2.133333 25.6 8.533333 51.2 25.6 68.266667l29.866667 29.866667c8.533333 8.533333 21.333333 8.533333 29.866666 0 8.533333-8.533333 8.533333-21.333333 0-29.866667l-29.866666-29.866667c-6.4-6.4-10.666667-19.2-10.666667-34.133333 0-12.8 8.533333-25.6 19.2-34.133333L669.866667 128c44.8-34.133333 108.8-29.866667 149.333333 10.666667l66.133333 66.133333c40.533333 40.533333 44.8 104.533333 10.666667 149.333333l-151.466667 204.8c-8.533333 10.666667-19.2 17.066667-34.133333 19.2s-25.6-4.266667-36.266667-12.8l-29.866666-29.866666c-8.533333-8.533333-21.333333-8.533333-29.866667 0-8.533333 8.533333-8.533333 21.333333 0 29.866666l29.866667 29.866667c17.066667 17.066667 38.4 25.6 61.866666 25.6h6.4c25.6-2.133333 49.066667-14.933333 64-36.266667l151.466667-204.8c46.933333-61.866667 40.533333-149.333333-14.933333-204.8zM561.066667 614.4c-8.533333-8.533333-21.333333-8.533333-29.866667 0-8.533333 8.533333-8.533333 21.333333 0 29.866667l29.866667 29.866666c8.533333 8.533333 14.933333 23.466667 12.8 36.266667 0 12.8-8.533333 25.6-19.2 34.133333L354.133333 896c-44.8 34.133333-108.8 29.866667-149.333333-10.666667l-66.133333-66.133333c-40.533333-40.533333-44.8-104.533333-10.666667-149.333333l151.466667-204.8c8.533333-10.666667 21.333333-17.066667 34.133333-19.2 12.8 0 25.6 4.266667 36.266667 12.8l29.866666 29.866666c8.533333 8.533333 21.333333 8.533333 29.866667 0 8.533333-8.533333 8.533333-21.333333 0-29.866666l-29.866667-29.866667c-19.2-19.2-42.666667-27.733333-68.266666-25.6-25.6 2.133333-49.066667 14.933333-64 36.266667l-151.466667 204.8c-46.933333 61.866667-40.533333 149.333333 14.933333 204.8l66.133334 66.133333c29.866667 29.866667 70.4 44.8 110.933333 44.8 32 0 66.133333-10.666667 93.866667-29.866667l202.666666-151.466666c21.333333-14.933333 34.133333-38.4 36.266667-64s-8.533333-51.2-25.6-70.4l-34.133333-29.866667zM369.066667 654.933333c4.266667 4.266667 10.666667 6.4 14.933333 6.4s10.666667-2.133333 14.933333-6.4l256-256c8.533333-8.533333 8.533333-21.333333 0-29.866666s-21.333333-8.533333-29.866666 0l-256 256c-8.533333 8.533333-8.533333 21.333333 0 29.866666z" /></svg>