<?xml version="1.0" standalone="no"?><!DOCTYPE svg PUBLIC "-//W3C//DTD SVG 1.1//EN" "http://www.w3.org/Graphics/SVG/1.1/DTD/svg11.dtd"><svg t="1593419662272" class="icon" viewBox="0 0 1024 1024" version="1.1" xmlns="http://www.w3.org/2000/svg" p-id="4175" xmlns:xlink="http://www.w3.org/1999/xlink" ><defs><style type="text/css"></style></defs><path d="M506.19 472.12C443.7 475 232.12 8.12 566 123.13c322.35-58.73 2.69 346.16-59.81 348.99z" fill="#f1c40f" p-id="4176"></path><path d="M505.64 481.9c-36 0-79.54-87.79-88-105.52C378.56 294 350 178.57 398.31 124.57c31.2-34.91 87.88-38.79 168.41-11.49 68.88-12.15 114.86-4 136.72 24.22 21.37 27.6 18.56 71.19-8.44 129.56-43.76 94.61-147.6 213.17-188.31 215-0.38 0.03-0.69 0.04-1.05 0.04z m-30.87-367.35c-27.48 0-48.18 7.68-61.92 23-39.22 43.86-17 147.33 22.46 230.43 29.57 62.3 59.6 94.84 70.44 94.37 24.81-1.13 125.39-104 171.49-203.71 16.3-35.22 31.39-82.79 10.77-109.42-17.06-22-58.64-27.73-120.3-16.51l-2.51 0.45-2.42-0.83q-51.71-17.78-88.01-17.78z" fill="#EBEEFF" p-id="4177"></path><path d="M477.33 484.75c-16.7 62.11-513.08 125.13-303.74-166.39C219-15.64 494 422.65 477.33 484.75z" fill="#f1c40f" p-id="4178"></path><path d="M288.87 547c-69.57 0-136.86-16-164.21-61.2-25.08-41.41-11.75-99 39.6-171.19C174.4 242.59 196.53 200 230 187.88c30.3-10.88 66.9 3.12 108.86 41.74 80.72 74.25 158.24 219.16 147.89 257.67-7.55 28.09-73 47-126.83 54.6a511 511 0 0 1-71.05 5.11z m-38.22-343.13a41.14 41.14 0 0 0-14 2.36c-26.12 9.42-44.58 48.65-53.39 113.44l-0.33 2.4-1.41 2c-47.52 66.17-61 117.21-40.17 151.67 29.84 49.27 129.91 59 215.83 46.84C424.93 513 465 493 467.9 482.22 475 455.87 406.29 318.16 325.65 244c-20.94-19.28-49.5-40.13-75-40.13z" fill="#EBEEFF" p-id="4179"></path><path d="M484.58 518.44c52.18 35.55-43 541.33-247.49 246.15C-57.24 616.9 432.4 482.89 484.58 518.44z" fill="#f1c40f" p-id="4180"></path><path d="M357.55 866.45c-40.57 0-83.22-31.61-127-94.26-63.64-32.35-96.18-67.3-96.7-103.88-0.5-35.34 29.42-70.26 86.52-101 90.43-48.64 236.66-79.51 269.76-57 27.43 18.69 18.4 105.7 8.74 154.16-17.53 87.89-59.68 186.65-125.42 200.28a77.67 77.67 0 0 1-15.9 1.7z m96.72-344c-47.51 0-147.77 20.7-224.7 62.08-35.06 18.85-76.74 48.65-76.25 83.5 0.41 28.73 30.89 59.11 88.15 87.84l2.23 1.13 1.42 2c45.19 65.25 87 94.39 124.32 86.68 56.48-11.71 94.68-107 110.24-185 15.13-75.86 9.25-127.52-0.59-134.22-3.98-2.66-12.68-4.01-24.82-4.01z" fill="#EBEEFF" p-id="4181"></path><path d="M517.92 521.75c49-40.13 486.49 209.43 150.79 318.53C441.4 1083 469 561.88 517.92 521.75z" fill="#f1c40f" p-id="4182"></path><path d="M566 914.2a60 60 0 0 1-16.21-2.2c-31.42-8.8-53.48-42.43-65.56-100-21.23-100.92-5.52-270.72 27.51-297.8 26.26-21.6 102.67 15.88 125.46 27.88 80.86 42.57 173 118.78 166.65 193.45-4.11 48.06-47.76 86.15-129.75 113.25C633 892.27 596.68 914.2 566 914.2z m-31.87-387.11c-4.92 0-8.3 0.8-10 2.21-20.71 17-43.64 169.88-20.78 278.72 7.19 34.28 22 76.88 51.72 85.19 26.33 7.37 63.13-13.25 106.53-59.6l1.72-1.83 2.39-0.78c75.36-24.49 115.3-57.17 118.71-97.13 5.21-61-74.75-131.59-156.29-174.52-44.86-23.61-77.78-32.26-94-32.26z" fill="#EBEEFF" p-id="4183"></path><path d="M531.28 495C509.35 434.63 875 83.1 872 445.7c153.81 297.7-318.79 109.64-340.72 49.3z" fill="#f1c40f" p-id="4184" data-spm-anchor-id="a313x.7781069.0.i0"></path><path d="M817.06 619a285.43 285.43 0 0 1-37.43-2.69c-99.07-13.18-243.47-79.34-257.52-118-11.55-31.8 45.86-97 81.61-130.5 30.7-28.79 136.83-120.1 213.45-86.55 43.19 18.92 64.9 73.45 64.56 162.1C915 508.5 921.2 556.65 900.2 586.51 885 608.13 857.1 619 817.06 619zM540.45 491.66c8.78 24.16 135.28 91.16 241.76 105.32 36.18 4.79 83.28 5 102-21.7 16.48-23.42 9.23-66.69-21-125.1l-1.04-2.18v-2.42c0.68-81.53-17.1-130.81-52.85-146.47-52.22-22.88-136.21 30.35-192.28 82.91-55.91 52.42-80.79 98.07-76.61 109.6z" fill="#EBEEFF" p-id="4185"></path></svg>