<?xml version="1.0" standalone="no"?><!DOCTYPE svg PUBLIC "-//W3C//DTD SVG 1.1//EN" "http://www.w3.org/Graphics/SVG/1.1/DTD/svg11.dtd"><svg class="icon" viewBox="0 0 1024 1024" version="1.1" xmlns="http://www.w3.org/2000/svg"><path d="M816.872727 158.254545h-181.527272V139.636364c0-39.563636-30.254545-69.818182-69.818182-69.818182h-107.054546c-39.563636 0-69.818182 30.254545-69.818182 69.818182v18.618181H207.127273c-48.872727 0-90.763636 41.890909-90.763637 93.09091s41.890909 90.763636 90.763637 90.763636h609.745454c51.2 0 90.763636-41.890909 90.763637-90.763636 0-51.2-41.890909-93.090909-90.763637-93.09091zM435.2 139.636364c0-13.963636 9.309091-23.272727 23.272727-23.272728h107.054546c13.963636 0 23.272727 9.309091 23.272727 23.272728v18.618181h-153.6V139.636364z m381.672727 155.927272H207.127273c-25.6 0-44.218182-20.945455-44.218182-44.218181 0-25.6 20.945455-44.218182 44.218182-44.218182h609.745454c25.6 0 44.218182 20.945455 44.218182 44.218182 0 23.272727-20.945455 44.218182-44.218182 44.218181zM835.490909 407.272727h-121.018182c-13.963636 0-23.272727 9.309091-23.272727 23.272728s9.309091 23.272727 23.272727 23.272727h97.745455V837.818182c0 39.563636-30.254545 69.818182-69.818182 69.818182h-37.236364V602.763636c0-13.963636-9.309091-23.272727-23.272727-23.272727s-23.272727 9.309091-23.272727 23.272727V907.636364h-118.690909V602.763636c0-13.963636-9.309091-23.272727-23.272728-23.272727s-23.272727 9.309091-23.272727 23.272727V907.636364H372.363636V602.763636c0-13.963636-9.309091-23.272727-23.272727-23.272727s-23.272727 9.309091-23.272727 23.272727V907.636364h-34.909091c-39.563636 0-69.818182-30.254545-69.818182-69.818182V453.818182H558.545455c13.963636 0 23.272727-9.309091 23.272727-23.272727s-9.309091-23.272727-23.272727-23.272728H197.818182c-13.963636 0-23.272727 9.309091-23.272727 23.272728V837.818182c0 65.163636 51.2 116.363636 116.363636 116.363636h451.490909c65.163636 0 116.363636-51.2 116.363636-116.363636V430.545455c0-13.963636-11.636364-23.272727-23.272727-23.272728z"  /></svg>