<?xml version="1.0" standalone="no"?><!DOCTYPE svg PUBLIC "-//W3C//DTD SVG 1.1//EN" "http://www.w3.org/Graphics/SVG/1.1/DTD/svg11.dtd"><svg class="icon" width="200px" height="150.04px" viewBox="0 0 1365 1024" version="1.1" xmlns="http://www.w3.org/2000/svg"><path fill="#333333" d="M1052.435382 853.334803a28.4442 28.4442 0 0 1 0-56.888399 255.997796 255.997796 0 0 0 0-511.995591 264.787053 264.787053 0 0 0-27.846872 1.564431 369.774594 369.774594 0 0 0-683.855444 0A264.787053 264.787053 0 0 0 312.886195 284.450813a255.997796 255.997796 0 0 0 0 511.995591 28.4442 28.4442 0 0 1 0 56.888399 312.743974 312.743974 0 0 1-7.623046-625.37417 426.378551 426.378551 0 0 1 754.795278 0A312.743974 312.743974 0 0 1 1052.435382 853.334803zM662.038744 349.161367a29.610412 29.610412 0 0 1 41.244089 0l255.997795 255.997795a28.728642 28.728642 0 1 1-40.646761 40.646761l-207.642656-207.642656v442.421079a28.4442 28.4442 0 1 1-56.68929 0V438.04949l-207.983987 207.983987a28.728642 28.728642 0 1 1-40.646761-40.646761zM455.107192 967.111601h455.107192a28.4442 28.4442 0 0 1 0 56.888399H455.107192a28.4442 28.4442 0 0 1 0-56.888399z" /></svg>