<?xml version="1.0" standalone="no"?><!DOCTYPE svg PUBLIC "-//W3C//DTD SVG 1.1//EN" "http://www.w3.org/Graphics/SVG/1.1/DTD/svg11.dtd"><svg class="icon" viewBox="0 0 1352 1024" version="1.1" xmlns="http://www.w3.org/2000/svg"><path fill="#fff" d="M1086.603604 415.596184c-13.65934-211.566186-160.799312-415.596184-430.627602-415.596184-246.810151 0-437.119373 183.448833-447.215407 428.272544-135.037018 42.022439-208.760594 186.520649-208.760594 291.699618 0 161.946123 134.586485 303.986881 287.99296 303.986881l207.982401 0c8.82635 0 15.99392-7.16757 15.99392-15.99392s-7.16757-15.99392-15.99392-15.99392l-207.982401 0c-136.368138 0-255.984641-127.091255-255.984641-271.978561 0-97.622303 85.560306-271.978561 255.984641-271.978561l48.00224 0c8.82635 0 15.99392-7.16757 15.99392-15.99392s-7.16757-15.99392-15.99392-15.99392l-48.00224 0c-16.280623 0-31.680659 1.822611-46.691599 4.443893 12.553487-191.66082 158.239466-388.420855 414.654161-388.420855 274.804632 0 399.970882 215.641462 399.970882 415.985281l0 48.00224c0 8.82635 7.16757 15.99392 15.99392 15.99392s15.99392-7.16757 15.99392-15.99392l0-48.00224c0-0.102394 0-0.184309 0-0.286703 96.598364 10.587525 223.9968 114.271544 223.9968 272.265264 0 122.422095-118.101074 271.978561-255.984641 271.978561l-239.990721 0c-103.602104 0-143.986241-40.384137-143.986241-143.986241l0-438.921505 130.490731 130.224507c3.133252 3.133252 7.229006 4.710117 11.324761 4.710117s8.191509-1.576865 11.324761-4.66916c6.246025-6.246025 6.246025-16.423975 0-22.629042l-142.737036-142.450333c-19.0043-18.942863-33.749015-18.942863-52.732836 0l-142.737036 142.450333c-6.246025 6.205068-6.246025 16.383017 0 22.629042s16.383017 6.246025 22.629042 0l130.449773-130.265464 0 438.921505c0 121.725816 54.268744 175.99456 175.99456 175.99456l239.990721 0c155.085735 0 287.99296-167.16821 287.99296-303.986881 0-165.32512-135.118933-294.628082-257.33624-304.375977z" /></svg>